<?xml version="1.0" encoding="utf-8"?>
<!-- Generator: Adobe Illustrator 16.0.0, SVG Export Plug-In . SVG Version: 6.00 Build 0)  -->
<!DOCTYPE svg PUBLIC "-//W3C//DTD SVG 1.1//EN" "http://www.w3.org/Graphics/SVG/1.1/DTD/svg11.dtd">
<svg version="1.1" id="图层_1" xmlns="http://www.w3.org/2000/svg" xmlns:xlink="http://www.w3.org/1999/xlink" x="0px" y="0px"
	 width="873.824px" height="175.491px" viewBox="0 0 873.824 175.491" enable-background="new 0 0 873.824 175.491"
	 xml:space="preserve">
<rect y="0.097" fill="#02A3A5" width="786.078" height="175.491"/>
<circle fill="#02A3A5" cx="786.079" cy="87.746" r="87.746"/>
<g>
	<g>
		<path fill="#FFFFFF" d="M137.553,67.117V32.345h21.7V22.67h12.025v9.675h21.701v22.483c0.347,8.717-3.227,12.812-10.72,12.288
			h-10.981v16.471h-12.025V67.117H137.553z M148.533,39.926v19.608h10.72V39.926H148.533z M181.999,39.926h-10.721v19.608h7.061
			c2.613,0,3.831-1.479,3.66-4.445V39.926z"/>
		<path fill="#FFFFFF" d="M204.774,82.018V24.24h57.781v47.583c0.17,6.969-3.229,10.369-10.197,10.196H204.774z M251.313,31.56
			h-35.297v43.662h31.113c2.785,0,4.184-1.394,4.184-4.184V31.56z M219.155,48.293h8.365v-6.014h-9.411v-6.798h30.85v6.798h-10.458
			v6.014h9.412v7.058h-9.412v9.412h10.981v7.059h-31.896v-7.059h9.934v-9.412h-8.365V48.293z M246.606,56.397
			c1.218,2.268,2.092,4.707,2.615,7.32h-7.844c-0.351-2.263-1.045-4.706-2.093-7.32H246.606z"/>
		<path fill="#FFFFFF" d="M293.96,22.932h11.504v5.491h20.916v27.452c0.348,8.366-3.576,12.377-11.766,12.027h-9.15v2.352
			c-0.176,3.488,1.393,5.144,4.705,4.968h8.628c2.263,0,3.399-1.132,3.399-3.399V69.47h8.889v2.876
			c0.172,6.622-2.965,9.845-9.412,9.672h-16.994c-7.32,0.173-10.894-3.573-10.719-11.242v-2.875h-20.393V28.422h20.393V22.932z
			 M284.286,35.743v8.366h9.674v-8.366H284.286z M284.286,51.43v9.15h9.674v-9.15H284.286z M315.138,35.743h-9.674v8.366h9.674
			V35.743z M310.954,60.58c2.962,0.176,4.354-1.131,4.184-3.921V51.43h-9.674v9.15H310.954z"/>
		<path fill="#FFFFFF" d="M339.481,56.92v-7.583h25.623v-6.536c4.183-2.091,8.628-5.229,13.332-9.412h-34.51v-7.844h52.551v7.582
			c-6.275,5.581-12.551,9.674-18.824,12.289v3.921h22.746v7.583h-22.746v14.641c0,7.145-3.66,10.719-10.98,10.719h-10.459v-7.058
			h5.49c2.265,0,3.4-1.218,3.4-3.661V56.92H339.481z"/>
		<path fill="#FFFFFF" d="M411.149,80.188V26.592h54.382V69.47c0.171,7.319-3.398,10.89-10.72,10.719H411.149z M453.503,34.175
			h-30.326v38.693h25.883c3.139,0.176,4.616-1.307,4.443-4.445V34.175z"/>
		<path fill="#FFFFFF" d="M536.675,48.293h-44.969v15.163c0.523,9.763-4.359,16.471-14.641,20.132v-7.06
			c2.091-2.438,3.047-5.838,2.876-10.196v-25.36h56.733V48.293z M501.903,22.67h11.242v8.105h7.32
			c2.091,0.176,3.047-0.785,2.875-2.875v-3.398h10.719v4.706c0.172,5.927-2.613,8.802-8.365,8.627h-44.969V24.501h10.719v6.274
			h10.459V22.67z M493.797,59.011V51.69h39.479v7.321h-13.595v5.752h17.517v7.583h-17.517v10.719h-11.504V72.346h-16.209v-7.583
			h16.209v-5.752H493.797z"/>
		<path fill="#FFFFFF" d="M544.811,63.979v-7.32h3.398V53.26h8.889v3.399h9.151V53.26h8.89v3.399h3.136v7.32h-3.398
			c-0.351,4.706-2.092,8.456-5.229,11.242c0.348,0,0.785,0.176,1.309,0.522c2.09,0.522,3.745,0.874,4.967,1.045v6.537
			c-5.928-1.046-10.721-2.353-14.38-3.922c-4.534,1.569-10.286,2.876-17.255,3.922v-6.537c3.66-0.346,6.621-0.955,8.889-1.83
			c-2.613-2.961-4.184-6.622-4.707-10.98H544.811z M605.465,29.991v7.321h-2.875c-0.175,13.595-2.442,23.62-6.798,30.066
			c1.915,2.615,4.877,5.49,8.89,8.628v7.582c-6.451-3.836-11.157-7.145-14.118-9.936c-3.66,3.137-8.194,6.361-13.594,9.674v-7.319
			c3.483-3.138,6.273-6.099,8.364-8.89c-3.313-5.401-5.581-12.551-6.798-21.438c-0.521,0-1.045,0.176-1.566,0.522v-3.922h-3.662
			c0.871,2.267,2.354,4.273,4.445,6.014v5.751c-5.928-2.092-9.766-5.576-11.504-10.458v8.627h-9.151v-8.627
			c-1.919,4.707-5.751,8.194-11.503,10.458v-5.751c2.092-1.741,3.57-3.747,4.445-6.014h-4.445v-7.32h11.503V23.194h9.151v11.765
			h10.981v4.183c3.136-2.962,4.968-8.276,5.491-15.948h9.934c-0.353,2.443-0.784,4.706-1.308,6.797H605.465z M545.855,24.501h7.844
			c0.171,3.312,0.869,6.364,2.093,9.15h-7.583C546.812,30.514,546.028,27.467,545.855,24.501z M561.282,71.299
			c2.613-1.739,4.093-4.182,4.443-7.319h-8.367C557.882,67.292,559.19,69.731,561.282,71.299z M577.491,24.501
			c-0.176,3.312-0.874,6.364-2.092,9.15h-7.582c0.693-2.091,1.307-4.967,1.83-8.627c-0.176,0.351-0.176,0.176,0-0.522H577.491z
			 M587.688,41.756c0.523,6.104,1.479,11.242,2.875,15.424c1.568-4.877,2.525-11.502,2.876-19.869h-4.706
			c-1.045,1.744-2.353,3.227-3.922,4.444H587.688z"/>
		<path fill="#FFFFFF" d="M617.523,23.194h9.935v7.582h3.399v7.059h-3.399v11.765c1.047-0.171,2.179-0.522,3.399-1.045v7.059
			c-0.176,0.175-0.522,0.352-1.046,0.523c-0.523,0.176-1.307,0.437-2.354,0.785v17.255c0,5.576-2.789,8.367-8.365,8.367h-5.229
			v-6.536h1.308c1.74,0.174,2.522-0.785,2.352-2.877V59.796c-1.396,0.175-2.875,0.436-4.444,0.784v-8.627
			c1.569,0,3.049-0.172,4.444-0.522V37.834h-3.921v-7.059h3.921V23.194z M641.839,81.757V60.319h9.672v-5.229h-9.672v1.831
			c0.521,12.026-4.012,20.825-13.596,26.405v-7.059c2.787-4.354,4.094-10.196,3.923-17.516V25.285h40.261v9.936
			c0.349,5.927-2.268,8.716-7.843,8.366h-3.399v4.707h12.289v6.796h-12.289v5.229h10.196v13.073
			c0.349,5.923-2.529,8.712-8.628,8.366H641.839z M641.839,32.345v4.443h19.346c1.568,0,2.354-0.784,2.354-2.353v-2.091H641.839z
			 M641.839,43.586v4.707h9.672v-4.707H641.839z M650.728,66.855v8.628h8.89c1.915,0.176,2.785-0.785,2.614-2.876v-5.752H650.728z"
			/>
		<path fill="#FFFFFF" d="M683.7,67.117V32.345h21.701V22.67h12.023v9.675h21.701v22.483c0.348,8.717-3.227,12.812-10.72,12.288
			h-10.981v16.471h-12.023V67.117H683.7z M694.682,39.926v19.608h10.72V39.926H694.682z M728.147,39.926h-10.723v19.608h7.061
			c2.615,0,3.833-1.479,3.662-4.445V39.926z"/>
		<path fill="#FFFFFF" d="M753.536,35.743h9.152c-0.176,13.595-1.222,26.321-3.139,38.171h-10.98
			C751.531,60.147,753.187,47.422,753.536,35.743z M765.04,27.376h12.027v42.877c-0.176,2.791,1.131,4.097,3.921,3.922h5.229
			c2.264,0,3.4-1.131,3.4-3.399v-3.398h9.148v4.968c0.172,6.099-2.875,9.06-9.148,8.889h-14.381
			c-6.974,0.171-10.372-2.965-10.197-9.412V27.376z M788.571,23.194c2.613,8.195,4.443,18.3,5.49,30.327h-11.242
			c-0.523-10.282-1.66-20.393-3.398-30.327H788.571z M804.52,35.743c3.483,12.55,5.661,25.014,6.536,37.387h-10.981
			c-0.874-13.073-2.444-25.531-4.704-37.387H804.52z"/>
	</g>
	<g>
		<path fill="#FFFFFF" d="M367.44,106.424h-43.138v24.314c0.694,11.156-5.058,18.734-17.256,22.746v-7.059
			c3.31-2.263,4.877-6.36,4.706-12.288V98.319h22.746v-5.751h13.334v5.751h19.607V106.424z"/>
		<path fill="#FFFFFF" d="M374.53,126.816c1.74-5.923,2.877-12.112,3.4-18.563h6.272c-0.174,5.581-0.872,11.766-2.09,18.563H374.53z
			 M395.185,93.875v37.386c0.521,10.81-5.317,18.211-17.516,22.223v-6.798c4.705-3.66,7.058-8.451,7.058-14.379V93.875H395.185z
			 M403.813,150.346v-23.529h-5.752c-0.352-5.229-1.137-11.414-2.355-18.563h5.754c0.87,3.137,1.654,6.711,2.354,10.72V94.659h9.934
			v55.687H403.813z M422.636,153.484v-26.667h-5.751c-0.874-7.32-1.745-13.505-2.614-18.563h6.014
			c0.869,3.137,1.654,6.536,2.352,10.196V93.875h10.197v59.609H422.636z"/>
		<path fill="#FFFFFF" d="M503.718,123.417c-1.223-0.521-2.967-1.216-5.229-2.091c-1.569-0.694-2.706-1.218-3.4-1.569v22.484
			c0.173,6.622-3.313,9.845-10.456,9.674h-9.936v-7.32h5.229c2.265,0.175,3.308-0.956,3.137-3.399v-16.471h-11.503
			c-0.522,14.469-9.326,23.962-26.406,28.497v-6.536c9.76-5.053,14.642-12.373,14.642-21.961h-6.797v-5.49
			c-2.616,1.397-5.752,2.79-9.412,4.182v-7.32c8.537-4.706,13.766-12.027,15.687-21.96h12.026
			c-2.615,10.98-7.498,18.563-14.641,22.745h33.987c-7.149-4.183-12.026-11.765-14.641-22.745h12.024
			c1.918,9.934,7.146,17.255,15.689,21.96V123.417z"/>
		<path fill="#FFFFFF" d="M514.204,137.013v-34.772h21.701v-9.673h12.025v9.673h21.701v22.484c0.347,8.717-3.227,12.81-10.72,12.288
			h-10.981v16.471h-12.025v-16.471H514.204z M525.186,109.823v19.608h10.72v-19.608H525.186z M558.651,109.823h-10.721v19.608h7.061
			c2.613,0,3.831-1.479,3.66-4.444V109.823z"/>
		<path fill="#FFFFFF" d="M584.042,105.639h9.152c-0.177,13.596-1.222,26.32-3.139,38.171h-10.98
			C582.037,130.044,583.692,117.318,584.042,105.639z M595.546,97.273h12.027v42.877c-0.176,2.791,1.131,4.098,3.921,3.923h5.229
			c2.264,0,3.398-1.132,3.398-3.399v-3.399h9.15v4.968c0.172,6.099-2.875,9.061-9.15,8.889h-14.38
			c-6.973,0.172-10.371-2.965-10.196-9.411V97.273z M619.077,93.09c2.613,8.195,4.443,18.301,5.49,30.327h-11.242
			c-0.523-10.281-1.66-20.392-3.398-30.327H619.077z M635.025,105.639c3.483,12.55,5.661,25.014,6.536,37.387H630.58
			c-0.874-13.072-2.444-25.532-4.705-37.387H635.025z"/>
	</g>
</g>
<g>
	<path fill="#231815" d="M42.337,85.226c0,0,1.913,1.185,0.402,3.226c0,0-11.617,13.945-11.238,18.443c0,0-0.632,0.992-0.102,0.954
		c0,0,0.906,0.643,1.777-1.322c0,0,11.033-17.84,24.791-27.023c0,0,23.795-15.547,42.643-13.329c0,0,22.249,2.071,18.723,21.924
		c0,0-4.412,21.514-61.457,30.182c0,0-1.382,0.302-1.42-0.756c0,0,0.038-1.134,2.759-1.664c0,0,0.644-0.415,0-0.568
		c0,0-5.819-1.057-9.448,1.778c0,0-3.024,2.645-3.893-0.869c0,0-0.49-2.458,2.607-3.363c0,0,4.762-0.91,7.986-1.01
		c0,0,47.57-5.141,55.331-27.11c0,0,1.915-10.686-17.032-10.987c0,0-33.322,2.492-55.09,30.914c0,0-12.587,24.52,20.521,26.636
		c0,0,33.562,0.455,55.937-8.616c0,0,5.538-1.978,4.933,3.313c0,0-0.768,5.096-14.855,5.852c0,0-1.364,3.029-5.346,4.34
		c0,0-14.916,4.131-23.383,4.536c0,0-0.654,0.606-0.303,0.806c0,0,1.411,2.974,23.988-2.771c0,0,3.688-1.872,4.242-0.108
		c0,0,1.451,4.444-10.391,7.114c0,0-19.754,3.981-33.41,2.571c0,0-36.183,0.803-36.789-31.247c0,0-1.208-14.413,14.112-30.034
		C38.934,87.036,41.201,84.254,42.337,85.226z"/>
	<path fill="#D30200" d="M42.688,85.173c0,0,1.246,1.125-0.264,3.166c0,0-11.188,13.19-10.811,17.688c0,0-0.113,0.907,0.418,0.868
		c0,0,0.904,0.643,1.773-1.322c0,0,11.035-17.84,24.794-27.022c0,0,23.795-15.547,42.642-13.329c0,0,21.97,1.914,18.441,21.769
		c0,0-4.053,21.519-61.096,30.185c0,0-1.463,0.453-1.499-0.605c0,0,0.036-1.132,2.759-1.661c0,0,0.836-0.512,0.195-0.663
		c0,0-6.016-0.964-9.644,1.871c0,0-3.022,2.646-3.894-0.869c0,0-0.49-2.456,2.607-3.364c0,0,4.763-0.91,7.988-1.01
		c0,0,47.568-5.141,55.33-27.111c0,0,1.915-10.683-17.032-10.986c0,0-33.358,2.067-55.13,30.489c0,0-12.547,24.945,20.563,27.061
		c0,0,33.561,0.454,55.934-8.617c0,0,5.064-1.36,4.461,3.931c0,0-1.226,4.536-15.316,5.291c0,0-0.432,2.974-4.412,4.284
		c0,0-14.918,4.131-23.383,4.535c0,0-0.654,0.605-0.303,0.807c0,0,1.411,2.974,23.988-2.771c0,0,2.923-1.361,3.476,0.403
		c0,0,2.218,3.933-9.624,6.604c0,0-19.755,3.98-33.41,2.57c0,0-36.182,0.803-36.787-31.247c0,0-1.209-14.413,14.109-30.035
		C39.563,86.083,41.554,84.201,42.688,85.173z"/>
	<path fill="#231815" d="M123.759,54.848L92.011,25.065c-2.87-2.268-4.459-2.367-4.459-2.367c-4.385-0.202-6.842,5.731-6.842,5.731
		c-0.793,2.268-2.127,2.08-2.127,2.08c-1.453,0.096-2.531-2.479-2.613-2.684v-0.492h0.984c0.711,0,1.286-0.576,1.286-1.285
		c0-0.5-0.294-0.921-0.71-1.134c0.992-1.134,1.605-2.604,1.605-4.232c0-3.59-2.91-6.501-6.5-6.501s-6.502,2.911-6.502,6.501
		c0,1.663,0.641,3.163,1.672,4.305c-0.354,0.229-0.602,0.607-0.602,1.061c0,0.709,0.576,1.285,1.285,1.285H69.3v0.454
		c0,0-1.113,2.822-2.626,2.721c0,0-1.335,0.188-2.13-2.08c0,0-2.456-5.933-6.84-5.731c0,0-1.588,0.099-4.46,2.367L21.497,54.848
		c0,0-1.512,2.796,0.68,5.215c0,0,1.891,1.89,4.686,0l22.602-18.974c0,0,1.039-0.868,1.549-0.698c0,0,1.305,0.718-0.094,1.947
		L38.3,53.134c0,0-2.67,2.216-0.504,5.342c0,0,1.715,2.167,5.191-0.554l13.102-12.498c0,0,0.503-0.705,1.26-0.303
		c0,0,1.033,0.605,0.381,1.588l-2.924,4.914c0,0-0.578,0.831,0.455,1.991c0,0,1.838,2.167,3.829-0.982l3.729-5.721
		c0,0,0.308-0.396,0.875-0.15c0,0,0.568,0.453,0.453,0.775l-2.402,6.161c0,0-0.508,1.189,1.779,1.189l5.775-0.017v22.478
		c-1.698-0.962-10.074-5.895-10.437-9.97c0,0,4.435-1.865,4.938-5.443c0,0,0.149-2.127-3.025-3.154c0,0-6.45-2.116-8.313,4.636
		c0,0-1.688,4.704,0.352,8.617c0,0,1.959,4.942,9.827,9.578l0.276,0.187c0,0-6.225,4.245-6.225,9.84c0,0,0,6.5,8.064,9.272
		c0,0-6.393,2.362-6.369,11.03c0,0,0.725,8.063,7.78,9.273l0.51,0.08c0,0-6.757,3.505-6.657,9.251c0,0-0.656,7.457,8.365,9.019
		l0.912,0.223v19.653c0,1.378,1.492,2.496,3.336,2.496c1.842,0,3.334-1.118,3.334-2.496v-19.712l0.672-0.163
		c9.02-1.562,8.365-9.019,8.365-9.019c0.1-5.746-6.658-9.251-6.658-9.251l0.51-0.08c7.056-1.21,7.783-9.273,7.783-9.273
		c0.021-8.668-6.372-11.03-6.372-11.03c8.063-2.771,8.063-9.272,8.063-9.272c0-5.595-6.224-9.84-6.224-9.84l0.276-0.187
		c7.867-4.635,9.827-9.578,9.827-9.578c2.04-3.913,0.353-8.617,0.353-8.617c-1.863-6.752-8.315-4.636-8.315-4.636
		c-3.173,1.027-3.022,3.154-3.022,3.154c0.504,3.578,4.938,5.443,4.938,5.443c-0.348,3.902-8.051,8.595-10.195,9.83V54.868
		l5.762,0.017c2.287,0,1.775-1.189,1.775-1.189l-2.399-6.161c-0.113-0.322,0.454-0.775,0.454-0.775
		c0.566-0.246,0.874,0.15,0.874,0.15l3.729,5.721c1.991,3.149,3.83,0.982,3.83,0.982c1.033-1.16,0.454-1.991,0.454-1.991
		l-2.922-4.914c-0.657-0.983,0.379-1.588,0.379-1.588c0.757-0.402,1.26,0.303,1.26,0.303l13.103,12.498
		c3.478,2.721,5.191,0.554,5.191,0.554c2.165-3.125-0.504-5.342-0.504-5.342L94.335,42.338c-1.398-1.229-0.094-1.947-0.094-1.947
		c0.51-0.169,1.549,0.698,1.549,0.698l22.603,18.974c2.797,1.89,4.685,0,4.685,0C125.271,57.645,123.759,54.848,123.759,54.848z
		 M67.681,133.612c-2.799-0.044-3.148-2.583-3.148-2.583c0-2.669,3.148-3.717,3.148-3.717V133.612z M67.681,94.759
		c-3.225-0.05-3.627-2.975-3.627-2.975c0-3.074,3.627-4.282,3.627-4.282V94.759z M67.681,114.139
		c-3.056-0.048-3.439-2.818-3.439-2.818c0-2.915,3.439-4.06,3.439-4.06V114.139z M77.216,107.261c0,0,3.441,1.145,3.441,4.06
		c0,0-0.384,2.77-3.441,2.818V107.261z M80.431,131.029c0,0-0.351,2.538-3.148,2.583v-6.3
		C77.282,127.312,80.431,128.36,80.431,131.029z M77.199,87.502c0,0,3.629,1.208,3.629,4.282c0,0-0.405,2.925-3.629,2.975V87.502z"
		/>
	<path fill="#FFD700" d="M124.484,54.89L92.737,25.107c-2.873-2.267-4.459-2.368-4.459-2.368c-4.385-0.2-6.842,5.733-6.842,5.733
		c-0.793,2.267-2.129,2.08-2.129,2.08c-1.453,0.096-2.528-2.479-2.611-2.684v-0.492h0.984c0.712,0,1.285-0.574,1.285-1.284
		c0-0.5-0.293-0.922-0.711-1.135c0.994-1.134,1.606-2.604,1.606-4.231c0-3.59-2.91-6.5-6.499-6.5c-3.592,0-6.502,2.911-6.502,6.5
		c0,1.663,0.641,3.162,1.671,4.306c-0.354,0.229-0.601,0.608-0.601,1.061c0,0.71,0.574,1.284,1.284,1.284h0.812v0.455
		c0,0-1.117,2.822-2.627,2.722c0,0-1.335,0.188-2.129-2.08c0,0-2.457-5.933-6.842-5.733c0,0-1.586,0.102-4.459,2.368L22.223,54.89
		c0,0-1.512,2.797,0.681,5.216c0,0,1.891,1.891,4.687,0L50.19,41.133c0,0,1.039-0.868,1.551-0.699c0,0,1.303,0.719-0.097,1.946
		L39.026,53.177c0,0-2.673,2.218-0.504,5.342c0,0,1.713,2.167,5.189-0.555l13.103-12.497c0,0,0.503-0.706,1.26-0.303
		c0,0,1.037,0.606,0.38,1.587l-2.922,4.914c0,0-0.58,0.832,0.453,1.99c0,0,1.84,2.168,3.83-0.981l3.729-5.721
		c0,0,0.308-0.397,0.876-0.15c0,0,0.564,0.454,0.452,0.774l-2.399,6.161c0,0-0.51,1.19,1.776,1.19l5.776-0.017v22.477
		c-1.699-0.962-10.075-5.893-10.438-9.969c0,0,4.434-1.864,4.938-5.441c0,0,0.15-2.129-3.024-3.156c0,0-6.45-2.115-8.316,4.638
		c0,0-1.684,4.702,0.355,8.617c0,0,1.957,4.94,9.826,9.577l0.277,0.186c0,0-6.224,4.245-6.224,9.839c0,0,0,6.5,8.063,9.272
		c0,0-6.393,2.362-6.372,11.03c0,0,0.728,8.064,7.781,9.272l0.511,0.083c0,0-6.757,3.502-6.656,9.248c0,0-0.656,7.459,8.362,9.021
		l0.915,0.221v19.655c0,1.377,1.492,2.495,3.332,2.495c1.846,0,3.338-1.117,3.338-2.495v-19.713l0.671-0.163
		c9.019-1.562,8.364-9.021,8.364-9.021c0.1-5.746-6.658-9.248-6.658-9.248l0.511-0.083c7.056-1.208,7.783-9.272,7.783-9.272
		c0.021-8.667-6.372-11.03-6.372-11.03c8.063-2.772,8.063-9.272,8.063-9.272c0-5.594-6.223-9.839-6.223-9.839l0.277-0.186
		c7.867-4.637,9.826-9.577,9.826-9.577c2.038-3.915,0.354-8.617,0.354-8.617c-1.865-6.753-8.316-4.638-8.316-4.638
		c-3.174,1.027-3.023,3.156-3.023,3.156c0.506,3.577,4.939,5.441,4.939,5.441c-0.348,3.903-8.052,8.595-10.195,9.83V54.911
		l5.761,0.017c2.286,0,1.776-1.19,1.776-1.19l-2.4-6.161c-0.113-0.32,0.453-0.774,0.453-0.774c0.568-0.247,0.875,0.15,0.875,0.15
		l3.73,5.721c1.99,3.149,3.828,0.981,3.828,0.981c1.033-1.158,0.455-1.99,0.455-1.99l-2.923-4.914
		c-0.653-0.981,0.38-1.587,0.38-1.587c0.757-0.403,1.26,0.303,1.26,0.303l13.102,12.497c3.477,2.722,5.19,0.555,5.19,0.555
		c2.169-3.124-0.501-5.342-0.501-5.342L95.063,42.38c-1.4-1.228-0.098-1.946-0.098-1.946c0.512-0.169,1.55,0.699,1.55,0.699
		l22.601,18.973c2.797,1.891,4.688,0,4.688,0C125.996,57.687,124.484,54.89,124.484,54.89z M68.407,133.654
		c-2.8-0.044-3.15-2.582-3.15-2.582c0-2.669,3.15-3.717,3.15-3.717V133.654z M68.407,94.801c-3.225-0.05-3.629-2.973-3.629-2.973
		c0-3.074,3.629-4.284,3.629-4.284V94.801z M68.407,114.182c-3.057-0.048-3.439-2.819-3.439-2.819c0-2.914,3.439-4.06,3.439-4.06
		V114.182z M77.942,107.303c0,0,3.439,1.146,3.439,4.06c0,0-0.381,2.771-3.439,2.819V107.303z M81.157,131.072
		c0,0-0.351,2.538-3.15,2.582v-6.299C78.007,127.355,81.157,128.403,81.157,131.072z M77.925,87.543c0,0,3.629,1.21,3.629,4.284
		c0,0-0.404,2.923-3.629,2.973V87.543z"/>
	<path fill="#231815" d="M87.991,104.299c-10.54,4.032-23.725,7.186-29.304,8.039l2.144,5.48c10.963-1.779,19.885-4.132,27.16-6.618
		V104.299z"/>
	<g>
		<path fill="#D30200" d="M59.879,114.862c-2.721,0.527-2.76,1.661-2.76,1.661c0.039,1.058,1.419,0.756,1.419,0.756
			c44.621-6.78,56.867-21.515,60.086-27.612h-9.486c-13.259,16.971-52.006,21.16-52.006,21.16c-3.225,0.101-7.986,1.01-7.986,1.01
			c-3.098,0.907-2.607,3.363-2.607,3.363c0.869,3.516,3.893,0.87,3.893,0.87c3.627-2.835,9.448-1.777,9.448-1.777
			C60.522,114.445,59.879,114.862,59.879,114.862z"/>
	</g>
</g>
</svg>
