<?xml version="1.0" encoding="utf-8"?>
<!-- Svg Vector Icons : http://www.onlinewebfonts.com/icon -->
<!DOCTYPE svg PUBLIC "-//W3C//DTD SVG 1.1//EN" "http://www.w3.org/Graphics/SVG/1.1/DTD/svg11.dtd">
<svg version="1.1" xmlns="http://www.w3.org/2000/svg" xmlns:xlink="http://www.w3.org/1999/xlink" x="0px" y="0px" viewBox="0 0 1000 1000" enable-background="new 0 0 1000 1000" xml:space="preserve">
<metadata> Svg Vector Icons : http://www.onlinewebfonts.com/icon </metadata>
<g><path d="M484.9,809.9L150.6,464.5l85.7-69.8l193.3,154c79.2-95.7,255.1-285.5,497.8-436.5l20.4,47.8C725.1,367.8,542.7,660.4,484.9,809.9L484.9,809.9L484.9,809.9z M907.1,432.8c3.6,21.9,5.5,44.3,5.5,67.2c0,227.9-184.7,412.6-412.6,412.6C272.1,912.6,87.4,727.9,87.4,500C87.4,272.1,272.1,87.4,500,87.4c55,0,107.5,10.8,155.5,30.3V35.2C605.6,18.5,553.4,10,500,10c-66.1,0-130.3,13-190.8,38.5c-58.4,24.7-110.8,60-155.7,105c-45,45-80.3,97.4-105,155.7C23,369.7,10,433.9,10,500c0,66.1,13,130.3,38.5,190.8c24.7,58.4,60,110.8,105,155.7c45,45,97.4,80.3,155.7,105C369.7,977,433.9,990,500,990s130.3-13,190.8-38.5c58.4-24.7,110.8-60,155.7-105c45-45,80.3-97.4,105-155.7C977,630.3,990,566.1,990,500c0-22.7-1.5-45.1-4.6-67.2L907.1,432.8L907.1,432.8z" fill="#319b43"/></g>
</svg>