<?xml version="1.0" encoding="utf-8"?>
<!-- Generator: Adobe Illustrator 19.0.0, SVG Export Plug-In . SVG Version: 6.00 Build 0)  -->
<svg version="1.1" id="图层_1" xmlns="http://www.w3.org/2000/svg" xmlns:xlink="http://www.w3.org/1999/xlink" x="0px" y="0px"
	 viewBox="0 0 514.6 138.7" style="enable-background:new 0 0 514.6 138.7;" xml:space="preserve">
<style type="text/css">
	.st0{fill:#00C800;}
	.st1{fill:#020202;}
</style>
<g>
	<path class="st0" d="M57.2,87.7c-0.7,0.4-1.5,0.6-2.4,0.6c-2,0-3.7-1.1-4.6-2.7l-0.3-0.8L35.6,53.5c-0.2-0.3-0.3-0.7-0.3-1.1
		c0-1.4,1.2-2.6,2.6-2.6c0.6,0,1.1,0.2,1.6,0.5l16.9,12c1.2,0.8,2.7,1.3,4.3,1.3c0.9,0,1.8-0.2,2.7-0.5l79.4-35.3
		C128.5,11,105.1,0,78.6,0C35.2,0,0,29.3,0,65.5C0,85.2,10.6,103,27.2,115c1.3,0.9,2.2,2.5,2.2,4.3c0,0.6-0.1,1.1-0.3,1.7
		c-1.3,4.9-3.4,12.8-3.5,13.2c-0.2,0.6-0.4,1.3-0.4,1.9c0,1.4,1.2,2.6,2.6,2.6c0.6,0,1-0.2,1.5-0.5l17.2-9.9
		c1.3-0.7,2.7-1.2,4.2-1.2c0.8,0,1.6,0.1,2.3,0.3c8,2.3,16.7,3.6,25.7,3.6c43.4,0,78.6-29.3,78.6-65.5c0-11-3.2-21.3-9-30.3
		L57.7,87.4L57.2,87.7z"/>
	<g>
		<rect x="304.4" y="72.6" class="st1" width="44.1" height="3.7"/>
		<rect x="304.4" y="85.1" class="st1" width="44.1" height="4"/>
		<path class="st1" d="M305.5,100v23.7h41.8V100H305.5z M343.3,120h-33.7v-16.3h33.7V120z"/>
		<path class="st1" d="M294.8,49.7c-3.9,13.9-9.5,26.1-16.8,36.6c0,0,0,0,0,0l2.2,3.8c2.6-3.8,5.1-8.1,7.7-12.8V124h4V68.9
			c2.6-5.5,4.7-11.2,6.5-17.1L294.8,49.7z"/>
		<path class="st1" d="M326.7,59.9l3.2-1.8c-0.6-1.4-3.3-6.9-4.1-8.7l-3.7,2.2c1.3,2.5,2.6,5,3.7,7.5c0.2,0.4,0.3,0.7,0.3,0.9H300v4
			h53.1v-4H326.7z"/>
		<g>
			<polygon class="st1" points="227.2,50.8 230.9,50.8 230.9,70.6 238.7,70.6 238.7,56.7 242.4,56.7 242.4,74.4 215.4,74.4 
				215.4,56.7 219.2,56.7 219.2,70.6 227.2,70.6 			"/>
			<rect x="216.7" y="82.4" class="st1" width="23.9" height="3.7"/>
			<path class="st1" d="M244,104l-6.2,5.3V94.2h-20.2v5.9c0.6,8.3-1.5,14.2-6.2,17.7l2.2,3.7c5.8-4.8,8.5-11.4,8.1-19.8v-3.7h12.4v9
				c-0.1,3.1-0.3,4.1-1.4,5.6l2.3,4c2.1-1.7,5.7-4.8,10.8-9.3L244,104z"/>
			<path class="st1" d="M209.8,50c-3.9,7.9-8.5,14.3-13.9,19.4l2.3,3.9c6.2-6.2,11.2-13.3,15.2-21.4L209.8,50z"/>
			<path class="st1" d="M209.2,70.3c-3.7,9.3-8.5,17.3-14.5,24.1l2.2,3.7c2.4-2.9,4.8-5.8,7-8.9V124h3.7V83
				c1.8-3.2,3.5-6.8,5.2-10.6L209.2,70.3z"/>
			<path class="st1" d="M271.6,68.1v-3.7h-17.7c1.5-4.5,3.3-9.9,3.9-14.6l-3.9,0c-2.6,12.2-6.4,22.4-11.5,30.7l2.4,4.1
				c0.4-0.8,1-2,1.7-3.5c0.8-1.4,1.4-2.6,1.9-3.4c1.2,11,3.4,19.7,6.5,26.1c-3,5.1-7.4,10.4-13.4,15.7l2.2,3.9
				c6.4-6,10.7-11.2,13-15.5c2.7,4.9,7.3,10.6,12.3,15.7l2.3-3.9c-5.3-5.1-9.9-10.7-12.4-15.5c4.5-8.3,7.3-20.3,8.4-36H271.6z
				 M257,99.5c-2.7-6.8-4.7-16-5.9-27.6c0.4-1.2,0.9-2.5,1.6-3.7h10.9C262.7,81.4,260.5,91.8,257,99.5z"/>
		</g>
		<path d="M483.9,104.7c-2.7-5.4-8.3-14.6-12.8-21.4l3.4-1.7c4.6,6.8,10.3,15.8,13,20.8L483.9,104.7z"/>
		<path d="M433.7,123.3l1.1-3.5c-12.6-1.9-23.6-5.5-32.8-10.9c9.9-6.5,17.8-15.1,22.8-26.6l-2.6-1.8l-0.8,0.2h-21.3V66h32.3v-4
			h-32.3V48.2h-3.9V62h-32.2v4h32.2v14.7h-21.9v3.9c4.7,9.9,11.9,18,20.5,24.1c-9.7,5.5-21.1,9-32.9,11.2l1.1,3.7
			c0,0.1,0.1,0.1,0.1,0.2c12.6-2.5,24.8-6.5,35.2-12.6c9.8,6.1,21.6,10.2,35.2,12.3C433.6,123.5,433.7,123.4,433.7,123.3z
			 M378.9,84.7h40.1c-4.6,9.3-11.7,16.4-20.5,22C389.9,100.9,383.3,93.6,378.9,84.7z"/>
		<path d="M462.6,48.8c-4.9,13.2-12.7,25.8-21.1,34.4l1.7,4.3c0,0.1,0.1,0.2,0.1,0.2c3.5-3.5,6.8-7.7,9.9-12.3v48.5h3.9V69.1
			c3.5-6,6.7-12.5,9.2-19.2L462.6,48.8z"/>
		<path d="M503.5,67.1V49.2h-3.9v17.9h-34.4v4h34.4v46.5c0,1.9-0.7,2.4-2.5,2.6c-1.5,0.1-3.1,0.4-7.4,0.4l0,3.5
			c5.8,0,7.8-0.1,10-0.7c2.6-0.7,3.9-2,3.9-5.9V71.1h11.1v-4H503.5z"/>
	</g>
</g>
</svg>
